# xmcd CD database file generated by Grip 3.1.2
# 
# Track frame offsets:
#       150
#       15774
#       34221
#       50321
#       78280
#       97355
#       118122
#       134494
#       160983
#       179220
#       198050
#       218092
#       240014
#       260831
#       283143
# 
# Disc length: 4242 seconds
# 
# Revision: 5
# Processed by: cddbd v1.5PL3 Copyright (c) Steve Scherf et al.
# Submitted via: Grip 3.1.2
# 
DISCID=d310900f
DTITLE=Barry White - The Ultimate Collection
DYEAR=2002
DGENRE=Soul
TTITLE0=You're The First, The Last, My Everything
TTITLE1=Can't Get Enough Of Your Love Babe
TTITLE2=Let The Music Play
TTITLE3=Change
TTITLE4=I'll Do For You Anything You Want Me To
TTITLE5=Sho' You Right
TTITLE6=What Am I Gonna Do With You
TTITLE7=Come On
TTITLE8=I'm Gonna Love You Just A Little More Babe
TTITLE9=Never, Never Gonna Give You Up
TTITLE10=Baby We Better Try And Get It Together
TTITLE11=Just The Way You Are
TTITLE12=All Around The World
TTITLE13=Dark And Lovely (You Over There) (Edit)
TTITLE14=Love's Interlude - Good Night My Love
EXTD=YEAR: 2002 ID3G: 42
EXTT0=
EXTT1=
EXTT2=
EXTT3=
EXTT4=
EXTT5=
EXTT6=
EXTT7=
EXTT8=
EXTT9=
EXTT10=
EXTT11=
EXTT12=
EXTT13=
EXTT14=
PLAYORDER=
